<?xml version="1.0" standalone="no"?>
<!DOCTYPE svg PUBLIC "-//W3C//DTD SVG 20010904//EN"
 "http://www.w3.org/TR/2001/REC-SVG-20010904/DTD/svg10.dtd">
<svg version="1.0" xmlns="http://www.w3.org/2000/svg" width="24.000000pt" height="24.000000pt" viewBox="0 0 24.000000 24.000000" preserveAspectRatio="xMidYMid meet">
    <g transform="translate(0.000000,24.000000) scale(0.100000,-0.100000)"
    fill="#000000" stroke="none">
    <path d="M110 228 c0 -7 -14 -21 -30 -30 -17 -9 -35 -29 -42 -43 -6 -14 -17
    -25 -25 -25 -7 0 -13 -4 -13 -10 0 -5 6 -10 13 -10 8 0 19 -11 25 -25 7 -14
    25 -34 42 -43 16 -9 30 -23 30 -29 0 -7 5 -13 10 -13 6 0 10 6 10 13 0 8 11
    19 25 25 14 7 34 25 43 42 9 16 23 30 30 30 6 0 12 5 12 10 0 6 -6 10 -13 10
    -8 0 -19 11 -25 25 -7 14 -25 34 -42 43 -16 9 -30 23 -30 30 0 6 -4 12 -10 12
    -5 0 -10 -6 -10 -12z m57 -60 c29 -27 29 -65 1 -95 -27 -29 -65 -29 -95 -1
    -29 27 -29 65 -1 95 27 29 65 29 95 1z"/>
    <path d="M90 145 c-26 -32 13 -81 48 -59 22 14 27 41 12 59 -16 19 -44 19 -60
    0z"/>
    </g>
</svg>
