<svg xmlns="http://www.w3.org/2000/svg" width="200" height="200" viewBox="0 0 200 200" version="1.1"><path d="M 61 47.387 C 57.425 48.635, 53.014 50.432, 51.197 51.381 C 46.353 53.911, 36.909 63.792, 33.783 69.601 C 21.863 91.751, 28.960 119.071, 50.082 132.340 C 53.152 134.269, 61.027 137.664, 67.582 139.885 C 74.137 142.106, 82.200 144.895, 85.500 146.081 C 88.800 147.268, 92.737 148.604, 94.250 149.050 L 97 149.860 97 136.430 L 97 123 79.500 123 L 62 123 62 105.500 L 62 88 79.500 88 L 97 88 97 68.738 L 97 49.476 89.640 47.238 C 79.879 44.270, 69.777 44.322, 61 47.387 M 132 74.981 L 132 88 147.500 88 C 156.025 88, 163 87.716, 163 87.368 C 163 85.784, 158.275 79.062, 154.097 74.702 C 149.445 69.847, 139.789 63.815, 134.750 62.616 L 132 61.962 132 74.981 M 132 138.469 C 132 156.055, 131.022 154.877, 141.500 149.905 C 150.779 145.502, 159.590 136.327, 163.782 126.703 C 164.452 125.165, 165 123.702, 165 123.453 C 165 123.204, 157.575 123, 148.500 123 L 132 123 132 138.469" stroke="none" fill="#fbfbfb" fill-rule="evenodd"/><path d="M -0 100.005 L -0 200.010 100.250 199.755 L 200.500 199.500 200.755 99.750 L 201.010 0 100.505 0 L 0 0 -0 100.005 M 0.481 100.500 C 0.481 155.500, 0.602 178.147, 0.750 150.826 C 0.898 123.506, 0.898 78.506, 0.750 50.826 C 0.602 23.147, 0.481 45.500, 0.481 100.500 M 61 47.387 C 57.425 48.635, 53.014 50.432, 51.197 51.381 C 46.353 53.911, 36.909 63.792, 33.783 69.601 C 21.863 91.751, 28.960 119.071, 50.082 132.340 C 53.152 134.269, 61.027 137.664, 67.582 139.885 C 74.137 142.106, 82.200 144.895, 85.500 146.081 C 88.800 147.268, 92.737 148.604, 94.250 149.050 L 97 149.860 97 136.430 L 97 123 79.500 123 L 62 123 62 105.500 L 62 88 79.500 88 L 97 88 97 68.738 L 97 49.476 89.640 47.238 C 79.879 44.270, 69.777 44.322, 61 47.387 M 132 74.981 L 132 88 147.500 88 C 156.025 88, 163 87.716, 163 87.368 C 163 85.784, 158.275 79.062, 154.097 74.702 C 149.445 69.847, 139.789 63.815, 134.750 62.616 L 132 61.962 132 74.981 M 132 138.469 C 132 156.055, 131.022 154.877, 141.500 149.905 C 150.779 145.502, 159.590 136.327, 163.782 126.703 C 164.452 125.165, 165 123.702, 165 123.453 C 165 123.204, 157.575 123, 148.500 123 L 132 123 132 138.469" stroke="none" fill="#8cc454" fill-rule="evenodd"/></svg>