<?xml version="1.0" standalone="no"?>
<!DOCTYPE svg PUBLIC "-//W3C//DTD SVG 20010904//EN"
 "http://www.w3.org/TR/2001/REC-SVG-20010904/DTD/svg10.dtd">
<svg version="1.0" xmlns="http://www.w3.org/2000/svg"
 width="512.000000pt" height="512.000000pt" viewBox="0 0 512.000000 512.000000"
 preserveAspectRatio="xMidYMid meet">

    <g transform="translate(0.000000,512.000000) scale(0.100000,-0.100000)"
    fill="#000000" stroke="none">
    <path d="M0 2560 l0 -2560 2560 0 2560 0 0 2560 0 2560 -2560 0 -2560 0 0
    -2560z m3310 2012 c551 -129 949 -527 1067 -1064 25 -118 25 -409 -1 -528 -34
    -158 -87 -288 -172 -426 -24 -39 -44 -79 -44 -89 0 -11 60 -80 139 -160 156
    -156 180 -196 181 -286 0 -68 -19 -116 -66 -168 -74 -83 -209 -111 -302 -62
    -44 22 -319 277 -469 434 -103 107 -117 134 -117 217 0 81 21 125 108 219 109
    119 170 225 211 365 64 222 32 455 -90 653 -65 105 -207 245 -305 300 -244
    136 -556 147 -807 29 -119 -57 -190 -112 -373 -291 -433 -422 -1004 -979
    -1098 -1070 -57 -55 -126 -113 -155 -130 -45 -26 -61 -30 -122 -29 -113 2
    -189 48 -231 139 -31 66 -33 161 -4 220 14 28 127 146 353 365 182 178 438
    427 567 554 504 497 577 561 728 650 144 84 301 142 472 172 112 20 419 11
    530 -14z m-753 -1997 c27 -8 68 -29 89 -46 34 -27 286 -271 923 -894 178 -174
    211 -222 211 -305 0 -93 -23 -122 -363 -455 -357 -350 -377 -365 -488 -365
    -81 0 -130 17 -178 63 -77 73 -104 203 -61 293 14 27 97 117 235 253 118 116
    215 216 215 222 0 13 -22 35 -361 368 -142 138 -265 251 -274 251 -9 0 -110
    -92 -225 -204 -238 -233 -265 -251 -375 -251 -145 1 -244 97 -253 246 -3 52 0
    74 16 106 12 23 130 148 284 300 399 394 413 406 503 426 36 8 51 7 102 -8z"/>
    </g>
</svg>
