<?xml version="1.0" standalone="no"?>
<!DOCTYPE svg PUBLIC "-//W3C//DTD SVG 20010904//EN"
 "http://www.w3.org/TR/2001/REC-SVG-20010904/DTD/svg10.dtd">
<svg version="1.0" xmlns="http://www.w3.org/2000/svg"
 width="222.000000pt" height="222.000000pt" viewBox="0 0 222.000000 222.000000"
 preserveAspectRatio="xMidYMid meet">

    <g transform="translate(0.000000,222.000000) scale(0.100000,-0.100000)"
    fill="#000000" stroke="none">
    <path d="M480 1635 l0 -45 40 0 40 0 0 -64 c0 -35 3 -84 6 -110 l7 -47 56 3
    56 3 3 107 3 107 42 3 c42 3 42 3 45 46 l3 42 -150 0 -151 0 0 -45z"/>
    <path d="M806 1532 c-31 -81 -56 -151 -56 -155 0 -5 26 -7 58 -5 l57 3 29 83
    c15 45 31 82 35 82 4 0 17 -33 30 -72 13 -40 28 -79 33 -85 11 -14 118 -18
    118 -6 0 4 -26 74 -57 155 l-57 148 -66 0 -67 0 -57 -148z"/>
    <path d="M1090 1635 l0 -45 40 0 39 0 3 -107 3 -108 60 0 60 0 3 108 3 107 39
    0 40 0 0 45 0 45 -145 0 -145 0 0 -45z"/>
    <path d="M1440 1598 c-17 -46 -43 -111 -56 -145 -13 -34 -24 -66 -24 -73 0 -7
    20 -10 57 -8 55 3 58 4 70 38 43 123 52 144 57 130 2 -8 17 -50 32 -92 l27
    -78 59 0 c52 0 59 2 54 18 -3 9 -30 78 -59 152 l-53 135 -65 3 -66 3 -33 -83z"/>
    <path d="M600 1199 c-14 -26 -68 -59 -97 -59 -20 0 -23 -5 -23 -40 l0 -40 55
    0 55 0 0 -180 0 -180 55 0 55 0 0 260 0 260 -45 0 c-34 0 -47 -5 -55 -21z"/>
    <path d="M750 1165 l0 -55 485 0 485 0 0 55 0 55 -485 0 -485 0 0 -55z"/>
    <path d="M886 1049 c-21 -17 -26 -18 -26 -5 0 13 -12 16 -55 16 l-55 0 2 -177
    3 -178 53 -3 52 -3 0 113 c0 129 11 158 59 158 52 0 61 -24 61 -154 l0 -117
    53 3 52 3 3 115 c2 88 6 118 19 132 19 21 66 24 81 5 7 -7 13 -66 14 -133 l3
    -119 53 -3 52 -3 0 141 c0 157 -9 189 -60 215 -45 23 -111 19 -154 -10 -20
    -13 -36 -20 -36 -15 0 17 -58 40 -103 40 -30 0 -53 -7 -71 -21z"/>
    <path d="M1440 1048 c-119 -61 -119 -252 0 -313 38 -20 119 -19 148 1 21 15
    22 14 22 -15 0 -76 -97 -114 -147 -57 -23 28 -25 28 -69 16 -24 -7 -44 -17
    -44 -23 0 -26 45 -78 84 -96 47 -23 127 -28 173 -10 42 15 92 68 103 109 5 19
    10 117 10 218 l0 182 -49 0 c-27 0 -51 -5 -53 -10 -2 -7 -16 -5 -40 5 -51 21
    -86 19 -138 -7z m150 -98 c27 -27 27 -90 0 -115 -12 -11 -36 -19 -57 -19 -66
    0 -96 73 -52 128 26 33 79 36 109 6z"/>
    <path d="M590 595 l0 -55 360 0 360 0 0 55 0 55 -360 0 -360 0 0 -55z"/>
    </g>
</svg>
